<mxfile host="app.diagrams.net" modified="2024-01-22T12:34:37.154Z" agent="Mozilla/5.0 (Windows NT 10.0; Win64; x64) AppleWebKit/537.36 (KHTML, like Gecko) Chrome/120.0.0.0 Safari/537.36" version="22.1.21" etag="LsYuMIOdvzrkmbkL5Ghb" type="github">
  <diagram name="PÃ¡gina-1" id="sryP6Jttet1EgB13KjzN">
    <mxGraphModel>
      <root>
        <mxCell id="0" />
        <mxCell id="1" parent="0" />
      </root>
    </mxGraphModel>
  </diagram>
</mxfile>
